Source Sans Pro-Light_normalized.ufo
<glyph name="F" format="1">
  <advance width="470"/>
  <unicode hex="0046"/>
  <outline>
    <contour>
      <point x="132" y="0" type="line"/>
      <point x="132" y="326" type="line"/>
      <point x="402" y="326" type="line"/>
      <point x="402" y="354" type="line"/>
      <point x="132" y="354" type="line"/>
      <point x="132" y="632" type="line"/>
      <point x="452" y="632" type="line"/>
      <point x="452" y="660" type="line"/>
      <point x="100" y="660" type="line"/>
      <point x="100" y="0" type="line"/>
    </contour>
    <contour>
      <point x="284" y="680" type="move" name="aboveUC"/>
    </contour>
    <contour>
      <point x="235" y="0" type="move" name="baseLC"/>
    </contour>
    <contour>
      <point x="116" y="-20" type="move" name="belowLC"/>
    </contour>
  </outline>
</glyph>
<glyph name="I" format="1">
  <advance width="232"/>
  <unicode hex="0049"/>
  <outline>
    <contour>
      <point x="132" y="0" type="line"/>
      <point x="132" y="660" type="line"/>
      <point x="100" y="660" type="line"/>
      <point x="100" y="0" type="line"/>
    </contour>
    <contour>
      <point x="116" y="0" type="move" name="baseLC"/>
    </contour>
    <contour>
      <point x="116" y="680" type="move" name="aboveUC"/>
    </contour>
    <contour>
      <point x="90" y="0" type="move" name="ogonekUC"/>
    </contour>
    <contour>
      <point x="116" y="-20" type="move" name="belowLC"/>
    </contour>
  </outline>
</glyph>
<glyph name="L" format="1">
  <advance width="460"/>
  <unicode hex="004C"/>
  <outline>
    <contour>
      <point x="442" y="0" type="line"/>
      <point x="442" y="28" type="line"/>
      <point x="132" y="28" type="line"/>
      <point x="132" y="660" type="line"/>
      <point x="100" y="660" type="line"/>
      <point x="100" y="0" type="line"/>
    </contour>
    <contour>
      <point x="230" y="0" type="move" name="baseLC"/>
    </contour>
    <contour>
      <point x="116" y="680" type="move" name="aboveUC"/>
    </contour>
    <contour>
      <point x="288" y="-20" type="move" name="belowLC"/>
    </contour>
    <contour>
      <point x="230" y="0" type="move" name="center"/>
    </contour>
  </outline>
</glyph>
<glyph name="e" format="1">
  <advance width="478"/>
  <unicode hex="0065"/>
  <outline>
    <contour>
      <point x="344" y="-12"/>
      <point x="384" y="12"/>
      <point x="420" y="34" type="curve"/>
      <point x="406" y="60" type="line"/>
      <point x="370" y="34"/>
      <point x="328" y="16"/>
      <point x="274" y="16" type="curve" smooth="yes"/>
      <point x="168" y="16"/>
      <point x="86" y="100"/>
      <point x="86" y="238" type="curve" smooth="yes"/>
      <point x="86" y="389"/>
      <point x="175" y="462"/>
      <point x="260" y="462" type="curve" smooth="yes"/>
      <point x="350" y="462"/>
      <point x="410" y="398"/>
      <point x="410" y="266" type="curve"/>
      <point x="76" y="266" type="line"/>
      <point x="76" y="238" type="line"/>
      <point x="438" y="238" type="line"/>
      <point x="440" y="250"/>
      <point x="440" y="260"/>
      <point x="440" y="270" type="curve" smooth="yes"/>
      <point x="440" y="412"/>
      <point x="370" y="490"/>
      <point x="260" y="490" type="curve" smooth="yes"/>
      <point x="154" y="490"/>
      <point x="54" y="394"/>
      <point x="54" y="238" type="curve" smooth="yes"/>
      <point x="54" y="82"/>
      <point x="152" y="-12"/>
      <point x="272" y="-12" type="curve" smooth="yes"/>
    </contour>
    <contour>
      <point x="250" y="0" type="move" name="baseLC"/>
    </contour>
    <contour>
      <point x="382" y="0" type="move" name="ogonekLC"/>
    </contour>
    <contour>
      <point x="250" y="-20" type="move" name="belowLC"/>
    </contour>
    <contour>
      <point x="260" y="500" type="move" name="aboveLC"/>
    </contour>
  </outline>
</glyph>
<glyph name="f" format="1">
  <advance width="252"/>
  <unicode hex="0066"/>
  <outline>
    <contour>
      <point x="130" y="0" type="line"/>
      <point x="130" y="592" type="line" smooth="yes"/>
      <point x="130" y="664"/>
      <point x="154" y="706"/>
      <point x="208" y="706" type="curve" smooth="yes"/>
      <point x="226" y="706"/>
      <point x="246" y="702"/>
      <point x="266" y="692" type="curve"/>
      <point x="276" y="718" type="line"/>
      <point x="254" y="728"/>
      <point x="230" y="734"/>
      <point x="210" y="734" type="curve" smooth="yes"/>
      <point x="142" y="734"/>
      <point x="100" y="690"/>
      <point x="100" y="596" type="curve" smooth="yes"/>
      <point x="100" y="0" type="line"/>
    </contour>
    <contour>
      <point x="244" y="450" type="line"/>
      <point x="244" y="478" type="line"/>
      <point x="100" y="478" type="line"/>
      <point x="34" y="474" type="line"/>
      <point x="34" y="450" type="line"/>
    </contour>
    <contour>
      <point x="192" y="730" type="move" name="aboveUC"/>
    </contour>
    <contour>
      <point x="126" y="0" type="move" name="baseLC"/>
    </contour>
    <contour>
      <point x="116" y="-20" type="move" name="belowLC"/>
    </contour>
  </outline>
</glyph>
<glyph name="i" format="1">
  <advance width="222"/>
  <unicode hex="0069"/>
  <outline>
    <component base="idotless"/>
    <component base="dotaccentcomb" xOffset="112"/>
    <contour>
      <point x="111" y="0" type="move" name="baseLC"/>
    </contour>
    <contour>
      <point x="111" y="700" type="move" name="aboveUC"/>
    </contour>
    <contour>
      <point x="130" y="0" type="move" name="ogonekLC"/>
    </contour>
    <contour>
      <point x="110" y="-20" type="move" name="belowLC"/>
    </contour>
    <contour>
      <point x="112" y="500" type="move" name="aboveLC"/>
    </contour>
  </outline>
</glyph>
<glyph name="l" format="1">
  <advance width="230"/>
  <unicode hex="006C"/>
  <outline>
    <contour>
      <point x="156" y="-12"/>
      <point x="162" y="-10"/>
      <point x="170" y="-8" type="curve"/>
      <point x="164" y="18" type="line"/>
      <point x="154" y="16"/>
      <point x="150" y="16"/>
      <point x="146" y="16" type="curve" smooth="yes"/>
      <point x="134" y="16"/>
      <point x="126" y="26"/>
      <point x="126" y="46" type="curve" smooth="yes"/>
      <point x="126" y="722" type="line"/>
      <point x="96" y="722" type="line"/>
      <point x="96" y="52" type="line" smooth="yes"/>
      <point x="96" y="6"/>
      <point x="114" y="-12"/>
      <point x="144" y="-12" type="curve" smooth="yes"/>
    </contour>
    <contour>
      <point x="115" y="0" type="move" name="baseLC"/>
    </contour>
    <contour>
      <point x="110" y="730" type="move" name="aboveUC"/>
    </contour>
    <contour>
      <point x="134" y="-20" type="move" name="belowLC"/>
    </contour>
    <contour>
      <point x="115" y="0" type="move" name="center"/>
    </contour>
  </outline>
</glyph>
<glyph name="AE" format="1">
  <advance width="804"/>
  <unicode hex="00C6"/>
  <outline>
    <contour>
      <point x="60" y="0" type="line"/>
      <point x="280" y="392" type="line"/>
      <point x="324" y="474"/>
      <point x="368" y="554"/>
      <point x="410" y="630" type="curve"/>
      <point x="414" y="630" type="line"/>
      <point x="414" y="0" type="line"/>
      <point x="758" y="0" type="line"/>
      <point x="758" y="28" type="line"/>
      <point x="446" y="28" type="line"/>
      <point x="446" y="338" type="line"/>
      <point x="696" y="338" type="line"/>
      <point x="696" y="366" type="line"/>
      <point x="446" y="366" type="line"/>
      <point x="446" y="632" type="line"/>
      <point x="748" y="632" type="line"/>
      <point x="748" y="660" type="line"/>
      <point x="398" y="660" type="line"/>
      <point x="26" y="0" type="line"/>
    </contour>
    <contour>
      <point x="442" y="226" type="line"/>
      <point x="442" y="254" type="line"/>
      <point x="174" y="254" type="line"/>
      <point x="174" y="226" type="line"/>
    </contour>
    <contour>
      <point x="586" y="694" type="move" name="aboveUC"/>
    </contour>
    <contour>
      <point x="402" y="0" type="move" name="baseLC"/>
    </contour>
    <contour>
      <point x="402" y="-20" type="move" name="belowLC"/>
    </contour>
  </outline>
</glyph>
<glyph name="Eth" format="1">
  <advance width="620"/>
  <unicode hex="00D0"/>
  <outline>
    <contour>
      <point x="320" y="336" type="line"/>
      <point x="320" y="364" type="line"/>
      <point x="122" y="364" type="line"/>
      <point x="38" y="362" type="line"/>
      <point x="38" y="336" type="line"/>
    </contour>
    <component base="D" xOffset="20"/>
    <contour>
      <point x="310" y="680" type="move" name="aboveUC"/>
    </contour>
    <contour>
      <point x="310" y="-20" type="move" name="belowLC"/>
    </contour>
  </outline>
</glyph>
<glyph name="Odieresis" format="1">
  <advance width="648"/>
  <unicode hex="00D6"/>
  <outline>
    <component base="O"/>
    <component base="dieresiscomb.cap" xOffset="324"/>
    <contour>
      <point x="324" y="0" type="move" name="ogonekUC"/>
    </contour>
  </outline>
</glyph>
<glyph name="idotless" format="1">
	<unicode hex="0131"/>
	<advance width="222"/>
	<outline>
		<contour>
			<point x="126" y="0" type="line"/>
			<point x="126" y="478" type="line"/>
			<point x="96" y="478" type="line"/>
			<point x="96" y="0" type="line"/>
		</contour>
		<contour>
			<point name="baseLC" x="111" y="0" type="move"/>
		</contour>
		<contour>
			<point name="ogonekLC" x="130" y="0" type="move"/>
		</contour>
		<contour>
			<point name="belowLC" x="110" y="-20" type="move"/>
		</contour>
		<contour>
			<point name="aboveLC" x="112" y="500" type="move"/>
		</contour>
	</outline>
</glyph>
<glyph name="dezh" format="1">
  <advance width="844"/>
  <unicode hex="02A4"/>
  <outline>
    <contour>
      <point x="522" y="450" type="line"/>
      <point x="522" y="478" type="line"/>
      <point x="437" y="478" type="line"/>
      <point x="437" y="450" type="line"/>
    </contour>
    <component base="d"/>
    <component base="ezh" xOffset="448"/>
    <contour>
      <point x="420" y="730" type="move" name="aboveUC"/>
    </contour>
    <contour>
      <point x="292" y="-20" type="move" name="belowLC"/>
    </contour>
  </outline>
</glyph>
<glyph name="macroncomb" format="1">
	<unicode hex="0304"/>
	<outline>
		<contour>
			<point x="120" y="608" type="line"/>
			<point x="120" y="636" type="line"/>
			<point x="-120" y="636" type="line"/>
			<point x="-120" y="608" type="line"/>
		</contour>
		<contour>
			<point name="_aboveLC" x="0" y="500" type="move"/>
		</contour>
		<contour>
			<point name="aboveLC" x="0" y="500" type="move"/>
		</contour>
	</outline>
</glyph>
<glyph name="dotbelowcomb" format="1">
	<unicode hex="0323"/>
	<outline>
		<component base="dotaccentcomb" yOffset="-790"/>
		<contour>
			<point name="_belowLC" x="0" y="-20" type="move"/>
		</contour>
	</outline>
</glyph>
<glyph name="macronbelowcomb" format="1">
	<unicode hex="0331"/>
	<outline>
		<component base="macroncomb" yOffset="-764"/>
		<contour>
			<point name="_belowLC" x="0" y="-20" type="move"/>
		</contour>
	</outline>
</glyph>
<glyph name="gimel-hb" format="1">
	<unicode hex="05D2"/>
	<advance width="378"/>
	<outline>
		<contour>
			<point x="323" y="0" type="line"/>
			<point x="273" y="233" type="line"/>
			<point x="273" y="393" type="line"/>
			<point x="273" y="484"/>
			<point x="254" y="530"/>
			<point x="176" y="544" type="curve" smooth="yes"/>
			<point x="115" y="555" type="line"/>
			<point x="109" y="526" type="line"/>
			<point x="174" y="515" type="line" smooth="yes"/>
			<point x="232" y="505"/>
			<point x="241" y="465"/>
			<point x="241" y="393" type="curve"/>
			<point x="241" y="233" type="line"/>
			<point x="291" y="0" type="line"/>
		</contour>
		<contour>
			<point x="58" y="-11" type="line"/>
			<point x="142" y="55"/>
			<point x="216" y="131"/>
			<point x="260" y="217" type="curve"/>
			<point x="249" y="249" type="line"/>
			<point x="201" y="159"/>
			<point x="127" y="83"/>
			<point x="39" y="13" type="curve"/>
		</contour>
	</outline>
</glyph>
<glyph name="vav-hb" format="1">
	<unicode hex="05D5"/>
	<advance width="217"/>
	<outline>
		<contour>
			<point x="115" y="545" type="line"/>
			<point x="129" y="428" type="line"/>
			<point x="129" y="0" type="line"/>
			<point x="97" y="0" type="line"/>
			<point x="97" y="428" type="line"/>
			<point x="83" y="545" type="line"/>
		</contour>
	</outline>
</glyph>
<glyph name="het-hb" format="1">
	<unicode hex="05D7"/>
	<advance width="523"/>
	<outline>
		<contour>
			<point x="449" y="0" type="line"/>
			<point x="449" y="340" type="line"/>
			<point x="449" y="475"/>
			<point x="392" y="545"/>
			<point x="284" y="545" type="curve" smooth="yes"/>
			<point x="77" y="545" type="line"/>
			<point x="77" y="515" type="line"/>
			<point x="282" y="515" type="line" smooth="yes"/>
			<point x="371" y="515"/>
			<point x="417" y="455"/>
			<point x="417" y="340" type="curve"/>
			<point x="417" y="0" type="line"/>
		</contour>
		<contour>
			<point x="109" y="0" type="line"/>
			<point x="109" y="545" type="line"/>
			<point x="77" y="545" type="line"/>
			<point x="77" y="0" type="line"/>
		</contour>
	</outline>
</glyph>
<glyph name="tet-hb" format="1">
	<unicode hex="05D8"/>
	<advance width="573"/>
	<outline>
		<contour>
			<point x="335" y="0"/>
			<point x="509" y="92"/>
			<point x="500" y="336" type="curve" smooth="yes"/>
			<point x="499" y="364" type="line" smooth="yes"/>
			<point x="495" y="483"/>
			<point x="434" y="539"/>
			<point x="323" y="548" type="curve" smooth="yes"/>
			<point x="271" y="552" type="line"/>
			<point x="269" y="523" type="line"/>
			<point x="319" y="519" type="line" smooth="yes"/>
			<point x="419" y="511"/>
			<point x="468" y="454"/>
			<point x="468" y="357" type="curve" smooth="yes"/>
			<point x="468" y="336" type="line"/>
			<point x="478" y="103"/>
			<point x="311" y="37"/>
			<point x="178" y="23" type="curve"/>
			<point x="114" y="545" type="line"/>
			<point x="82" y="545" type="line"/>
			<point x="149" y="-10" type="line"/>
		</contour>
	</outline>
</glyph>
<glyph name="yod-hb" format="1">
	<unicode hex="05D9"/>
	<advance width="199"/>
	<outline>
		<contour>
			<point x="115" y="545" type="line"/>
			<point x="129" y="428" type="line"/>
			<point x="129" y="253" type="line"/>
			<point x="128" y="190" type="line"/>
			<point x="101" y="190" type="line"/>
			<point x="97" y="253" type="line"/>
			<point x="97" y="428" type="line"/>
			<point x="83" y="545" type="line"/>
		</contour>
	</outline>
</glyph>
<glyph name="finalkaf-hb" format="1">
	<unicode hex="05DA"/>
	<advance width="495"/>
	<outline>
		<contour>
			<point x="407" y="-200" type="line"/>
			<point x="407" y="360" type="line"/>
			<point x="407" y="496"/>
			<point x="342" y="545"/>
			<point x="242" y="545" type="curve" smooth="yes"/>
			<point x="55" y="545" type="line"/>
			<point x="55" y="515" type="line"/>
			<point x="240" y="515" type="line" smooth="yes"/>
			<point x="320" y="515"/>
			<point x="375" y="477"/>
			<point x="375" y="360" type="curve"/>
			<point x="375" y="-200" type="line"/>
		</contour>
	</outline>
</glyph>
<glyph name="kaf-hb" format="1">
	<unicode hex="05DB"/>
	<advance width="467"/>
	<outline>
		<contour>
			<point x="67" y="545" type="line"/>
			<point x="67" y="515" type="line"/>
			<point x="181" y="515" type="line" smooth="yes"/>
			<point x="309" y="515"/>
			<point x="377" y="447"/>
			<point x="377" y="300" type="curve" smooth="yes"/>
			<point x="377" y="245" type="line" smooth="yes"/>
			<point x="377" y="98"/>
			<point x="309" y="30"/>
			<point x="181" y="30" type="curve" smooth="yes"/>
			<point x="67" y="30" type="line"/>
			<point x="67" y="0" type="line"/>
			<point x="181" y="0" type="line" smooth="yes"/>
			<point x="322" y="0"/>
			<point x="409" y="77"/>
			<point x="409" y="245" type="curve" smooth="yes"/>
			<point x="409" y="300" type="line" smooth="yes"/>
			<point x="409" y="468"/>
			<point x="322" y="545"/>
			<point x="181" y="545" type="curve" smooth="yes"/>
		</contour>
	</outline>
</glyph>
<glyph name="finalnun-hb" format="1">
	<unicode hex="05DF"/>
	<advance width="215"/>
	<outline>
		<contour>
			<point x="115" y="545" type="line"/>
			<point x="129" y="428" type="line"/>
			<point x="129" y="-200" type="line"/>
			<point x="97" y="-200" type="line"/>
			<point x="97" y="428" type="line"/>
			<point x="83" y="545" type="line"/>
		</contour>
	</outline>
</glyph>
<glyph name="nun-hb" format="1">
	<unicode hex="05E0"/>
	<advance width="374"/>
	<outline>
		<contour>
			<point x="294" y="393" type="line"/>
			<point x="288" y="484"/>
			<point x="249" y="530"/>
			<point x="171" y="544" type="curve" smooth="yes"/>
			<point x="110" y="555" type="line"/>
			<point x="104" y="526" type="line"/>
			<point x="169" y="515" type="line" smooth="yes"/>
			<point x="227" y="505"/>
			<point x="256" y="465"/>
			<point x="262" y="393" type="curve"/>
			<point x="262" y="30" type="line"/>
			<point x="60" y="30" type="line"/>
			<point x="60" y="0" type="line"/>
			<point x="294" y="0" type="line"/>
		</contour>
	</outline>
</glyph>
<glyph name="samekh-hb" format="1">
	<unicode hex="05E1"/>
	<advance width="536"/>
	<outline>
		<contour>
			<point x="64" y="545" type="line"/>
			<point x="64" y="258" type="line"/>
			<point x="64" y="80"/>
			<point x="162" y="-12"/>
			<point x="268" y="-12" type="curve" smooth="yes"/>
			<point x="380" y="-12"/>
			<point x="478" y="80"/>
			<point x="478" y="258" type="curve" smooth="yes"/>
			<point x="478" y="462"/>
			<point x="391" y="545"/>
			<point x="279" y="545" type="curve"/>
		</contour>
		<contour>
			<point x="174" y="16"/>
			<point x="96" y="106"/>
			<point x="96" y="258" type="curve"/>
			<point x="96" y="515" type="line"/>
			<point x="279" y="515" type="line" smooth="yes"/>
			<point x="379" y="515"/>
			<point x="446" y="434"/>
			<point x="446" y="258" type="curve" smooth="yes"/>
			<point x="446" y="106"/>
			<point x="368" y="16"/>
			<point x="268" y="16" type="curve" smooth="yes"/>
		</contour>
	</outline>
</glyph>
<glyph name="ayin-hb" format="1">
	<unicode hex="05E2"/>
	<advance width="525"/>
	<outline>
		<contour>
			<point x="223" y="24" type="line"/>
			<point x="393" y="74"/>
			<point x="418" y="180"/>
			<point x="416" y="315" type="curve"/>
			<point x="416" y="545" type="line"/>
			<point x="384" y="545" type="line"/>
			<point x="384" y="315" type="line"/>
			<point x="388" y="193"/>
			<point x="372" y="100"/>
			<point x="224" y="52" type="curve"/>
			<point x="55" y="6" type="line"/>
			<point x="60" y="-21" type="line"/>
		</contour>
		<contour>
			<point x="231" y="37" type="line"/>
			<point x="96" y="545" type="line"/>
			<point x="64" y="545" type="line"/>
			<point x="199" y="37" type="line"/>
		</contour>
	</outline>
</glyph>
<glyph name="finaltsadi-hb" format="1">
	<unicode hex="05E5"/>
	<advance width="500"/>
	<outline>
		<contour>
			<point x="425" y="-200" type="line"/>
			<point x="91" y="545" type="line"/>
			<point x="57" y="545" type="line"/>
			<point x="390" y="-200" type="line"/>
		</contour>
		<contour>
			<point x="346" y="545" type="line"/>
			<point x="200" y="235" type="line"/>
			<point x="219" y="200" type="line"/>
			<point x="378" y="545" type="line"/>
		</contour>
	</outline>
</glyph>
<glyph name="qof-hb" format="1">
	<unicode hex="05E7"/>
	<advance width="523"/>
	<outline>
		<contour>
			<point x="334" y="8"/>
			<point x="451" y="70"/>
			<point x="451" y="281" type="curve"/>
			<point x="451" y="515" type="line"/>
			<point x="451" y="545" type="line"/>
			<point x="72" y="545" type="line"/>
			<point x="72" y="515" type="line"/>
			<point x="419" y="515" type="line"/>
			<point x="419" y="281" type="line"/>
			<point x="415" y="72"/>
			<point x="320" y="43"/>
			<point x="206" y="30" type="curve"/>
			<point x="211" y="0" type="line"/>
		</contour>
		<contour>
			<point x="112" y="-200" type="line"/>
			<point x="112" y="298" type="line"/>
			<point x="112" y="365" type="line"/>
			<point x="85" y="365" type="line"/>
			<point x="80" y="298" type="line"/>
			<point x="80" y="-200" type="line"/>
		</contour>
	</outline>
</glyph>
<glyph name="resh-hb" format="1">
	<unicode hex="05E8"/>
	<advance width="482"/>
	<outline>
		<contour>
			<point x="397" y="0" type="line"/>
			<point x="397" y="360" type="line"/>
			<point x="397" y="496"/>
			<point x="332" y="545"/>
			<point x="232" y="545" type="curve" smooth="yes"/>
			<point x="65" y="545" type="line"/>
			<point x="65" y="515" type="line"/>
			<point x="230" y="515" type="line" smooth="yes"/>
			<point x="310" y="515"/>
			<point x="365" y="477"/>
			<point x="365" y="360" type="curve"/>
			<point x="365" y="0" type="line"/>
		</contour>
	</outline>
</glyph>
<glyph name="shin-hb" format="1">
	<unicode hex="05E9"/>
	<advance width="618"/>
	<outline>
		<contour>
			<point x="290" y="487" type="line" smooth="yes"/>
			<point x="285" y="344"/>
			<point x="237" y="293"/>
			<point x="121" y="228" type="curve"/>
			<point x="128" y="198" type="line"/>
			<point x="259" y="265"/>
			<point x="317" y="330"/>
			<point x="322" y="487" type="curve" smooth="yes"/>
			<point x="323" y="542" type="line"/>
			<point x="291" y="542" type="line"/>
		</contour>
		<contour>
			<point x="510" y="545" type="line"/>
			<point x="511" y="417" type="line" smooth="yes"/>
			<point x="513" y="149"/>
			<point x="374" y="37"/>
			<point x="161" y="23" type="curve"/>
			<point x="97" y="545" type="line"/>
			<point x="65" y="545" type="line"/>
			<point x="132" y="-10" type="line"/>
			<point x="398" y="0"/>
			<point x="545" y="129"/>
			<point x="543" y="417" type="curve" smooth="yes"/>
			<point x="542" y="545" type="line"/>
		</contour>
	</outline>
</glyph>
<glyph name="tav-hb" format="1">
	<unicode hex="05EA"/>
	<advance width="580"/>
	<outline>
		<contour>
			<point x="509" y="0" type="line"/>
			<point x="509" y="360" type="line"/>
			<point x="509" y="496"/>
			<point x="444" y="543"/>
			<point x="344" y="545" type="curve" smooth="yes"/>
			<point x="147" y="548" type="line"/>
			<point x="147" y="518" type="line"/>
			<point x="342" y="515" type="line" smooth="yes"/>
			<point x="422" y="514"/>
			<point x="477" y="477"/>
			<point x="477" y="360" type="curve"/>
			<point x="477" y="0" type="line"/>
		</contour>
		<contour>
			<point x="146" y="7"/>
			<point x="178" y="53"/>
			<point x="178" y="148" type="curve"/>
			<point x="178" y="518" type="line"/>
			<point x="147" y="518" type="line"/>
			<point x="147" y="152" type="line"/>
			<point x="148" y="74"/>
			<point x="123" y="29"/>
			<point x="40" y="12" type="curve"/>
			<point x="49" y="-14" type="line"/>
		</contour>
	</outline>
</glyph>
<glyph name="lefttorightmark" format="1">
  <advance width="0"/>
  <unicode hex="200E"/>
  <outline>
    <contour>
      <point x="144" y="875" type="line"/>
      <point x="39" y="984" type="line"/>
      <point x="14" y="957" type="line"/>
      <point x="77" y="894" type="line"/>
      <point x="-114" y="894" type="line"/>
      <point x="-114" y="858" type="line"/>
      <point x="77" y="858" type="line"/>
      <point x="14" y="792" type="line"/>
      <point x="39" y="767" type="line"/>
    </contour>
  </outline>
</glyph>
<glyph name="righttoleftmark" format="1">
  <advance width="0"/>
  <unicode hex="200F"/>
  <outline>
    <contour>
      <point x="-14" y="792" type="line"/>
      <point x="-76" y="858" type="line"/>
      <point x="116" y="858" type="line"/>
      <point x="116" y="894" type="line"/>
      <point x="-77" y="894" type="line"/>
      <point x="-14" y="958" type="line"/>
      <point x="-39" y="984" type="line"/>
      <point x="-144" y="875" type="line"/>
      <point x="-39" y="768" type="line"/>
    </contour>
  </outline>
</glyph>
<glyph name="righttoleftoverride" format="1">
  <advance width="0"/>
  <unicode hex="202E"/>
  <outline>
    <contour>
      <point x="59" y="831" type="line"/>
      <point x="-4" y="895" type="line"/>
      <point x="157" y="895" type="line"/>
      <point x="157" y="929" type="line"/>
      <point x="-4" y="929" type="line"/>
      <point x="59" y="995" type="line"/>
      <point x="31" y="1021" type="line"/>
      <point x="-71" y="914" type="line"/>
      <point x="31" y="805" type="line"/>
    </contour>
    <contour>
      <point x="-41" y="831" type="line"/>
      <point x="-121" y="914" type="line"/>
      <point x="-41" y="995" type="line"/>
      <point x="-66" y="1021" type="line"/>
      <point x="-171" y="914" type="line"/>
      <point x="-66" y="805" type="line"/>
    </contour>
  </outline>
</glyph>
<glyph name="four.heb" format="1">
  <advance width="472"/>
  <outline>
    <contour>
      <point x="342" y="0" type="line"/>
      <point x="342" y="640" type="line"/>
      <point x="322" y="640" type="line"/>
      <point x="16" y="212" type="line"/>
      <point x="16" y="196" type="line"/>
      <point x="440" y="196" type="line"/>
      <point x="440" y="224" type="line"/>
      <point x="58" y="224" type="line"/>
      <point x="260" y="506" type="line"/>
      <point x="278" y="534"/>
      <point x="296" y="556"/>
      <point x="312" y="582" type="curve"/>
      <point x="316" y="582" type="line"/>
      <point x="314" y="554"/>
      <point x="312" y="504"/>
      <point x="312" y="476" type="curve" smooth="yes"/>
      <point x="312" y="0" type="line"/>
    </contour>
  </outline>
</glyph>
<glyph name="guillemetright.lat" format="1">
	<advance width="388"/>
	<outline>
		<contour>
			<point x="346" y="238" type="line"/>
			<point x="346" y="266" type="line"/>
			<point x="208" y="430" type="line"/>
			<point x="188" y="412" type="line"/>
			<point x="312" y="252" type="line"/>
			<point x="188" y="90" type="line"/>
			<point x="208" y="74" type="line"/>
		</contour>
		<contour>
			<point x="212" y="238" type="line"/>
			<point x="212" y="266" type="line"/>
			<point x="74" y="430" type="line"/>
			<point x="54" y="412" type="line"/>
			<point x="178" y="252" type="line"/>
			<point x="54" y="90" type="line"/>
			<point x="74" y="74" type="line"/>
		</contour>
	</outline>
</glyph>
<glyph name="percent.lat" format="1">
  <advance width="798"/>
  <outline>
    <contour>
      <point x="228" y="-12" type="line"/>
      <point x="598" y="672" type="line"/>
      <point x="566" y="672" type="line"/>
      <point x="196" y="-12" type="line"/>
    </contour>
    <contour>
      <point x="266" y="258"/>
      <point x="318" y="332"/>
      <point x="318" y="466" type="curve" smooth="yes"/>
      <point x="318" y="598"/>
      <point x="266" y="672"/>
      <point x="180" y="672" type="curve" smooth="yes"/>
      <point x="94" y="672"/>
      <point x="42" y="598"/>
      <point x="42" y="466" type="curve" smooth="yes"/>
      <point x="42" y="332"/>
      <point x="94" y="258"/>
      <point x="180" y="258" type="curve" smooth="yes"/>
    </contour>
    <contour>
      <point x="114" y="284"/>
      <point x="72" y="352"/>
      <point x="72" y="466" type="curve" smooth="yes"/>
      <point x="72" y="580"/>
      <point x="114" y="646"/>
      <point x="180" y="646" type="curve" smooth="yes"/>
      <point x="246" y="646"/>
      <point x="288" y="580"/>
      <point x="288" y="466" type="curve" smooth="yes"/>
      <point x="288" y="352"/>
      <point x="246" y="284"/>
      <point x="180" y="284" type="curve" smooth="yes"/>
    </contour>
    <contour>
      <point x="704" y="-12"/>
      <point x="756" y="62"/>
      <point x="756" y="196" type="curve" smooth="yes"/>
      <point x="756" y="328"/>
      <point x="704" y="402"/>
      <point x="618" y="402" type="curve" smooth="yes"/>
      <point x="532" y="402"/>
      <point x="480" y="328"/>
      <point x="480" y="196" type="curve" smooth="yes"/>
      <point x="480" y="62"/>
      <point x="532" y="-12"/>
      <point x="618" y="-12" type="curve" smooth="yes"/>
    </contour>
    <contour>
      <point x="552" y="14"/>
      <point x="510" y="82"/>
      <point x="510" y="196" type="curve" smooth="yes"/>
      <point x="510" y="310"/>
      <point x="552" y="376"/>
      <point x="618" y="376" type="curve" smooth="yes"/>
      <point x="684" y="376"/>
      <point x="726" y="310"/>
      <point x="726" y="196" type="curve" smooth="yes"/>
      <point x="726" y="82"/>
      <point x="684" y="14"/>
      <point x="618" y="14" type="curve" smooth="yes"/>
    </contour>
  </outline>
</glyph>
<glyph name="periodcentered.lat" format="1">
  <advance width="208"/>
  <outline>
    <contour>
      <point x="122" y="284"/>
      <point x="140" y="298"/>
      <point x="140" y="322" type="curve" smooth="yes"/>
      <point x="140" y="348"/>
      <point x="122" y="362"/>
      <point x="104" y="362" type="curve" smooth="yes"/>
      <point x="86" y="362"/>
      <point x="68" y="348"/>
      <point x="68" y="322" type="curve" smooth="yes"/>
      <point x="68" y="298"/>
      <point x="86" y="284"/>
      <point x="104" y="284" type="curve" smooth="yes"/>
    </contour>
  </outline>
</glyph>
<glyph name="popdirectionformat" format="1">
  <advance width="0"/>
  <outline>
    <contour>
      <point x="17" y="765" type="line"/>
      <point x="17" y="925" type="line"/>
      <point x="79" y="861" type="line"/>
      <point x="104" y="887" type="line"/>
      <point x="0" y="994" type="line"/>
      <point x="-104" y="887" type="line"/>
      <point x="-79" y="861" type="line"/>
      <point x="-19" y="924" type="line"/>
      <point x="-19" y="765" type="line"/>
    </contour>
  </outline>
</glyph>
<glyph name="quotedblbase.lat" format="1">
  <advance width="336"/>
  <outline>
    <contour>
      <point x="248" y="-92"/>
      <point x="278" y="-46"/>
      <point x="278" y="22" type="curve" smooth="yes"/>
      <point x="278" y="60"/>
      <point x="262" y="80"/>
      <point x="240" y="80" type="curve" smooth="yes"/>
      <point x="220" y="80"/>
      <point x="206" y="68"/>
      <point x="206" y="46" type="curve" smooth="yes"/>
      <point x="206" y="24"/>
      <point x="224" y="14"/>
      <point x="240" y="14" type="curve" smooth="yes"/>
      <point x="252" y="14"/>
      <point x="256" y="16"/>
      <point x="266" y="28" type="curve"/>
      <point x="230" y="66" type="line"/>
      <point x="248" y="16" type="line"/>
      <point x="248" y="-40"/>
      <point x="226" y="-72"/>
      <point x="184" y="-108" type="curve"/>
      <point x="200" y="-126" type="line"/>
    </contour>
    <contour>
      <point x="120" y="-92"/>
      <point x="150" y="-46"/>
      <point x="150" y="22" type="curve" smooth="yes"/>
      <point x="150" y="60"/>
      <point x="134" y="80"/>
      <point x="112" y="80" type="curve" smooth="yes"/>
      <point x="92" y="80"/>
      <point x="78" y="68"/>
      <point x="78" y="46" type="curve" smooth="yes"/>
      <point x="78" y="24"/>
      <point x="96" y="14"/>
      <point x="112" y="14" type="curve" smooth="yes"/>
      <point x="124" y="14"/>
      <point x="128" y="16"/>
      <point x="138" y="28" type="curve"/>
      <point x="102" y="66" type="line"/>
      <point x="120" y="16" type="line"/>
      <point x="120" y="-40"/>
      <point x="98" y="-72"/>
      <point x="56" y="-108" type="curve"/>
      <point x="72" y="-126" type="line"/>
    </contour>
  </outline>
</glyph>
<glyph name="righttoleftembed" format="1">
  <advance width="0"/>
  <outline>
    <contour>
      <point x="-14" y="792" type="line"/>
      <point x="-76" y="858" type="line"/>
      <point x="-1" y="858" type="line"/>
      <point x="-1" y="894" type="line"/>
      <point x="-77" y="894" type="line"/>
      <point x="-14" y="958" type="line"/>
      <point x="-39" y="984" type="line"/>
      <point x="-144" y="875" type="line"/>
      <point x="-39" y="768" type="line"/>
    </contour>
    <contour>
      <point x="129" y="858" type="line"/>
      <point x="129" y="894" type="line"/>
      <point x="41" y="894" type="line"/>
      <point x="41" y="858" type="line"/>
    </contour>
  </outline>
</glyph>
<glyph name="zero.heb" format="1">
  <advance width="472"/>
  <outline>
    <contour>
      <point x="356" y="-12"/>
      <point x="422" y="110"/>
      <point x="422" y="322" type="curve" smooth="yes"/>
      <point x="422" y="534"/>
      <point x="356" y="652"/>
      <point x="236" y="652" type="curve" smooth="yes"/>
      <point x="116" y="652"/>
      <point x="50" y="534"/>
      <point x="50" y="322" type="curve" smooth="yes"/>
      <point x="50" y="110"/>
      <point x="116" y="-12"/>
      <point x="236" y="-12" type="curve" smooth="yes"/>
    </contour>
    <contour>
      <point x="142" y="16"/>
      <point x="82" y="124"/>
      <point x="82" y="322" type="curve" smooth="yes"/>
      <point x="82" y="520"/>
      <point x="142" y="624"/>
      <point x="236" y="624" type="curve" smooth="yes"/>
      <point x="330" y="624"/>
      <point x="390" y="520"/>
      <point x="390" y="322" type="curve" smooth="yes"/>
      <point x="390" y="124"/>
      <point x="330" y="16"/>
      <point x="236" y="16" type="curve" smooth="yes"/>
    </contour>
  </outline>
</glyph>
